# Blender v3.1.2 OBJ File: 'rswitch.blend'
# www.blender.org
mtllib rswitch.mtl
o Cube
v 0.733242 -0.511990 -0.733242
v 1.000000 -1.000000 -1.000000
v 0.733242 -0.511990 0.733242
v 1.000000 -1.000000 1.000000
v -0.733242 -0.511990 -0.733242
v -1.000000 -1.000000 -1.000000
v -0.733242 -0.511990 0.733242
v -1.000000 -1.000000 1.000000
vt 0.433311 0.566689
vt 0.066689 0.933311
vt 0.066689 0.566689
vt 0.500000 1.000000
vt 0.000000 1.000000
vt 0.433311 0.933311
vt 0.500000 0.500000
vt 0.500000 0.000000
vt 0.000000 0.500000
vt 0.000000 0.000000
vt 0.000000 0.500000
vt 0.500000 0.500000
vn 0.0000 1.0000 0.0000
vn 0.0000 0.4796 0.8775
vn -0.8775 0.4796 0.0000
vn 0.0000 -1.0000 0.0000
vn 0.8775 0.4796 0.0000
vn 0.0000 0.4796 -0.8775
usemtl Material
s off
f 5/1/1 3/2/1 1/3/1
f 3/2/2 8/4/2 4/5/2
f 7/6/3 6/7/3 8/4/3
f 2/8/4 8/9/4 6/10/4
f 1/3/5 4/5/5 2/11/5
f 5/1/6 2/11/6 6/7/6
f 5/1/1 7/6/1 3/2/1
f 3/2/2 7/6/2 8/4/2
f 7/6/3 5/1/3 6/7/3
f 2/8/4 4/12/4 8/9/4
f 1/3/5 3/2/5 4/5/5
f 5/1/6 1/3/6 2/11/6
