# Blender v3.1.2 OBJ File: 'enemy2.blend'
# www.blender.org
mtllib enemy2dead.mtl
o Cube.002
v 3.178379 -0.587235 -2.828342
v 3.701009 -3.413564 -2.110593
v 4.179704 -6.002304 -12.653008
v 3.657075 -3.175975 -4.948085
v 2.642520 2.808795 -3.564260
v 3.417264 2.453897 -3.564260
v 3.953122 -0.443974 -2.828342
v 1.119417 -5.553763 -12.463456
v 0.242311 -0.810458 -14.106674
v 3.121216 -0.278106 -14.106674
v -0.236384 1.778283 -3.564259
v 0.822103 -3.945915 -2.110592
v 1.300799 -6.534657 -12.653008
v 2.914056 0.842198 2.992899
v 2.378197 3.740068 2.256981
v -0.500707 3.207717 2.256982
v 0.035151 0.309847 2.992899
v 3.436685 -1.984130 3.710649
v 0.557781 -2.516481 3.710649
v 4.211428 -1.840868 3.710649
v 3.688798 0.985460 2.992899
v 3.787877 3.000000 3.000000
v 4.475751 -3.270303 -2.110593
v 8.808265 -0.990846 3.710649
v 9.072588 -2.420281 -2.110593
v 2.573464 2.684085 -3.659097
v 3.000000 3.391444 3.000000
v 2.240085 4.486970 2.067305
v 2.504407 3.057536 -3.753937
v 3.014828 4.630231 2.067305
v 3.279150 3.200797 -3.753937
v 7.973018 5.547073 2.067305
v 8.237341 1.685454 -3.753936
v 3.000000 3.000001 7.043116
v 3.000000 3.391445 7.043116
v 3.348207 2.827346 -3.659097
v 3.569786 -2.703922 3.893441
v 3.834108 -4.133358 -1.927800
v 4.608851 -3.990095 -1.927800
v 4.344528 -2.560661 3.893441
v 3.000000 -3.377238 -3.000000
v 4.542301 -3.630199 -2.019197
v 4.277978 -2.200764 3.802044
v 3.787877 -2.999999 8.185840
v 4.049522 -0.965296 8.833382
v 3.000000 -3.377237 3.000000
v 10.226376 5.577531 2.162143
v 10.490699 1.715912 -3.659097
v 8.375454 3.370739 -3.564260
v 8.111130 4.800172 2.256981
v 3.083884 4.256781 2.162143
v 11.241736 -2.391378 -10.581635
v 10.977414 -0.961943 -4.760393
v 8.462645 -3.754472 3.000001
v 9.205688 -3.140074 -1.927801
v 3.787877 3.391445 7.043116
v 3.787877 3.782889 7.043116
v 3.000000 3.782889 7.043116
v 3.787877 3.000001 7.043116
v 3.000000 -3.377236 8.185840
v 3.341329 -1.468454 8.924777
v 4.116072 -1.325192 8.924777
v 3.000000 -2.999999 8.185840
v -1.369045 7.903602 1.064457
v 1.509860 8.435953 1.064457
v 1.774183 7.504681 -4.756785
v -1.104722 6.474169 -4.756785
v -7.263353 2.136236 4.128250
v -4.354856 1.146486 4.128250
v -2.769171 5.806212 4.128249
v -5.677667 6.795962 4.128249
v -6.287779 -4.533638 4.128251
v -9.196276 -3.543889 4.128251
v -9.196276 -3.543890 -1.871749
v -6.287779 -4.533639 -1.871749
v -8.241894 -0.739322 4.128250
v -8.691919 1.629502 4.128250
v -8.983130 -0.487082 4.128250
v -5.333397 -1.729071 4.128251
v -9.196276 -3.855683 -13.690556
v -6.287779 -4.775511 -14.055962
v -8.241894 -0.739323 -1.871750
v -7.263353 2.136235 -1.871750
v -7.263353 1.423163 -11.593514
v -8.241894 -1.249248 -12.655140
v -4.354856 1.146485 -1.871750
v -4.354856 0.503336 -11.958920
v -5.333397 0.690724 -20.219463
v -5.677667 6.795961 -1.871751
v -2.769171 5.806211 -1.871751
v -8.983130 -0.487083 -1.871750
v -8.691919 1.629501 -1.871750
v -9.937512 -3.291649 4.128251
v -9.937512 -3.291650 -1.871750
v -10.103496 -3.779414 -1.871749
v -9.362260 -4.031654 -1.871749
v -9.528244 -4.519417 -1.871749
v -10.269480 -4.267179 -1.871749
v -7.263353 2.136236 8.248493
v -8.004589 2.388475 8.248493
v -6.856524 3.331752 4.128250
v -6.856524 3.331751 -1.871751
v -7.885450 2.601292 -1.871750
v -7.885450 2.601293 4.128250
v -7.059939 2.733994 4.128250
v -7.059939 2.733993 -1.871750
v -8.288685 2.115396 -1.871750
v -12.273293 4.601607 -1.871751
v -13.831442 4.239762 -1.871751
v -9.528244 -4.519416 4.128251
v -10.269480 -4.267178 4.128251
v -9.362260 -4.031653 4.128251
v -10.103496 -3.779413 4.128251
v -10.269480 -4.267177 9.058953
v -10.103496 -3.779413 9.058953
v -13.716768 -0.378751 -1.871750
v -13.716768 -2.005584 4.128251
v -13.831442 4.239763 4.128250
v -11.466825 5.573400 4.128249
v -11.466825 5.573399 -1.871751
v -8.288685 2.115397 4.128250
v -12.273293 4.601608 4.128249
v -16.088745 -1.742658 4.128251
v -16.088745 -0.115825 -1.871750
v -14.048737 -2.981112 -1.871750
v -14.048737 -2.981111 4.128251
v -7.801175 2.986233 8.248492
v -7.059939 2.733994 8.248493
v -6.856524 3.331753 8.248492
v -7.597760 3.583992 8.248492
v -9.362260 -4.031652 9.058953
v -9.528244 -4.519415 9.058953
v -9.937512 -3.291649 9.058953
v -9.196276 -3.543889 9.058953
vt 0.724456 0.437367
vt 0.654841 0.437367
vt 0.654841 0.182025
vt 0.724456 0.182025
vt 0.423642 0.262854
vt 0.495019 0.262854
vt 0.495019 0.281368
vt 0.423642 0.281368
vt 0.724456 0.000000
vt 0.795834 0.182025
vt 0.795834 0.182025
vt 0.582213 0.437367
vt 0.513416 0.437367
vt 0.513416 0.182025
vt 0.582213 0.182025
vt 0.336297 0.437367
vt 0.267500 0.437367
vt 0.267500 0.182025
vt 0.336297 0.182025
vt 0.159392 0.514130
vt 0.159392 0.585508
vt 0.090594 0.585508
vt 0.090594 0.514130
vt 0.336297 0.578360
vt 0.267500 0.578360
vt 0.159392 0.444515
vt 0.090594 0.444515
vt 0.654841 0.182025
vt 0.177906 0.444515
vt 0.177906 0.514130
vt 0.795834 0.437367
vt 0.476869 0.885789
vt 0.476869 0.957167
vt 0.335876 0.957167
vt 0.335876 0.885789
vt 0.476869 0.816174
vt 0.335876 0.816174
vt 0.177906 0.585508
vt 0.354026 0.262854
vt 0.354026 0.281368
vt 0.795834 0.255342
vt 0.936827 0.255342
vt 0.936827 0.365191
vt 0.795834 0.365191
vt 0.504218 0.262854
vt 0.504218 0.121861
vt 0.513416 0.121861
vt 0.513416 0.262854
vt 0.691971 0.673368
vt 0.691971 0.532376
vt 0.710484 0.532376
vt 0.710484 0.673368
vt 0.828969 0.532376
vt 0.828969 0.673368
vt 0.495019 0.121861
vt 0.495019 0.026853
vt 0.504218 0.026853
vt 0.504218 0.281368
vt 0.513416 0.281368
vt 0.513416 0.578360
vt 0.513416 0.437367
vt 0.531930 0.437367
vt 0.531930 0.578360
vt 0.345162 0.262854
vt 0.345162 0.281368
vt 0.336297 0.281368
vt 0.336297 0.262854
vt 0.945691 0.121861
vt 0.936827 0.121861
vt 0.936827 0.000000
vt 0.945691 0.000000
vt 0.345162 0.121861
vt 0.336297 0.121861
vt 0.881111 0.532376
vt 0.881111 0.673368
vt 0.513416 0.399855
vt 0.504218 0.452054
vt 0.654409 0.870847
vt 0.513416 0.870847
vt 0.513416 0.752362
vt 0.654409 0.752362
vt 0.174406 0.871858
vt 0.165208 0.871858
vt 0.165208 0.753371
vt 0.174406 0.701173
vt 0.691971 0.437367
vt 0.691971 0.578360
vt 0.641779 0.578360
vt 0.641779 0.437367
vt 0.354026 0.391220
vt 0.345162 0.441466
vt 0.504552 0.894137
vt 0.495687 0.894137
vt 0.495687 0.784286
vt 0.504552 0.734039
vt 0.425349 0.734039
vt 0.425349 0.752554
vt 0.416151 0.752554
vt 0.416151 0.734039
vt 0.881111 0.578360
vt 0.899625 0.578360
vt 0.899625 0.673369
vt 0.881111 0.673369
vt 0.908823 0.673368
vt 0.899625 0.673368
vt 0.899625 0.578360
vt 0.908823 0.578360
vt 0.691971 0.437367
vt 0.710484 0.437367
vt 0.443412 0.752554
vt 0.443412 0.734039
vt 0.452277 0.734039
vt 0.452277 0.752554
vt 0.336297 0.000000
vt 0.345162 0.000000
vt 0.477173 0.734039
vt 0.495687 0.734039
vt 0.495687 0.855901
vt 0.477173 0.855901
vt 0.531930 0.700221
vt 0.513416 0.700221
vt 0.354026 0.121861
vt 0.354026 0.000000
vt 0.434548 0.752554
vt 0.434548 0.734039
vt 0.513416 0.894137
vt 0.513416 0.784286
vt 0.336297 0.391220
vt 0.936827 0.415382
vt 0.795834 0.415382
vt 0.954556 0.121861
vt 0.954556 0.000000
vt 0.918022 0.673368
vt 0.918022 0.578360
vt 0.434548 0.734039
vt 0.434548 0.752554
vt 0.183605 0.871858
vt 0.183605 0.753371
vt 0.495019 0.399855
vt 0.513416 0.700221
vt 0.654409 0.700221
vt 0.513416 0.026853
vt 0.927804 0.955354
vt 0.859007 0.955354
vt 0.859007 0.814361
vt 0.927804 0.814361
vt 0.513416 0.452054
vt 0.513416 0.520851
vt 0.397752 0.520851
vt 0.397752 0.452054
vt 0.996775 0.437367
vt 0.996775 0.578360
vt 0.881111 0.578360
vt 0.881111 0.437367
vt 0.159392 0.701172
vt 0.090594 0.701172
vt 0.018399 0.585508
vt 0.090594 0.585508
vt 0.090594 0.701172
vt 0.018399 0.701172
vt 0.267500 0.578360
vt 0.195307 0.578360
vt 0.195307 0.437367
vt 0.267500 0.437367
vt 0.018399 0.514130
vt 0.000000 0.585508
vt 0.000000 0.514130
vt 0.090594 0.514130
vt 0.195307 0.182025
vt 0.267500 0.182025
vt 0.867211 0.255342
vt 0.795834 0.255342
vt 0.795834 0.000000
vt 0.867211 0.000000
vt 0.654406 0.437367
vt 0.582213 0.437367
vt 0.582213 0.182025
vt 0.654406 0.182025
vt 0.654841 0.182025
vt 0.582647 0.000000
vt 0.513416 0.520851
vt 0.513416 0.593047
vt 0.397752 0.593047
vt 0.397752 0.520851
vt 0.194883 0.182025
vt 0.267077 0.000000
vt 0.936827 0.255342
vt 0.936827 0.000000
vt 0.090594 0.444515
vt 0.018399 0.444515
vt 0.165208 0.187657
vt 0.093830 0.187657
vt 0.093830 0.169258
vt 0.165208 0.169258
vt 1.000000 0.742984
vt 1.000000 0.814361
vt 0.859007 0.814361
vt 0.859007 0.742984
vt 1.000000 0.673369
vt 0.859007 0.673369
vt 0.024215 0.187657
vt 0.024215 0.169258
vt 0.000000 0.444515
vt 0.012107 0.169258
vt 0.012107 0.187657
vt 0.000000 0.187657
vt 0.000000 0.169258
vt 0.140993 0.849739
vt 0.159392 0.849739
vt 0.159392 0.946560
vt 0.140993 0.946560
vt 0.194883 0.719353
vt 0.194883 0.578360
vt 0.213282 0.578360
vt 0.213282 0.719353
vt 0.180045 0.328650
vt 0.180045 0.187657
vt 0.194883 0.187657
vt 0.194883 0.328650
vt 0.180045 0.169258
vt 0.165208 0.059894
vt 0.180045 0.000000
vt 0.194883 0.169258
vt 0.691971 0.930227
vt 0.691971 0.789234
vt 0.710369 0.789234
vt 0.710369 0.930227
vt 0.012107 0.328650
vt 0.000000 0.328650
vt 0.378080 0.452054
vt 0.390187 0.452054
vt 0.390187 0.567919
vt 0.378080 0.567919
vt 0.335876 0.964812
vt 0.194883 0.964812
vt 0.194883 0.871004
vt 0.335876 0.871004
vt 0.382626 0.578360
vt 0.382626 0.719353
vt 0.322643 0.719353
vt 0.322643 0.578360
vt 0.669247 0.700221
vt 0.684084 0.700221
vt 0.684084 0.809584
vt 0.669247 0.869479
vt 0.000000 0.701173
vt 0.140993 0.701173
vt 0.140993 0.810534
vt 0.000000 0.810534
vt 0.859007 0.789234
vt 0.859007 0.930227
vt 0.804177 0.930227
vt 0.804177 0.789234
vt 0.153100 0.849739
vt 0.140993 0.849739
vt 0.140993 0.755930
vt 0.153100 0.701172
vt 0.000000 0.075448
vt 0.012107 0.020691
vt 0.397752 0.748877
vt 0.416151 0.748877
vt 0.416151 0.763715
vt 0.397752 0.763715
vt 0.351135 0.452054
vt 0.365972 0.452054
vt 0.365972 0.548874
vt 0.351135 0.548874
vt 0.213282 0.816174
vt 0.194883 0.816174
vt 0.194883 0.425470
vt 0.180045 0.425470
vt 0.354696 0.560982
vt 0.336297 0.560982
vt 0.336297 0.548874
vt 0.354696 0.548874
vt 0.936827 0.121861
vt 0.955225 0.121861
vt 0.955225 0.237727
vt 0.936827 0.237727
vt 0.691971 0.673368
vt 0.710369 0.673368
vt 0.024215 0.328650
vt 0.024215 0.444515
vt 0.012107 0.444515
vt 0.165208 0.328650
vt 0.165208 0.425470
vt 0.336297 0.452054
vt 0.336297 0.548874
vt 0.397752 0.734039
vt 0.416151 0.734039
vt 0.654409 0.700221
vt 0.654409 0.809584
vt 0.140993 0.870517
vt 0.000000 0.870517
vt 0.194883 0.059894
vt 0.000000 0.444515
vt 0.354696 0.573089
vt 0.336297 0.573089
vt 0.024215 0.075448
vt 0.165208 0.849739
vt 0.165208 0.755930
vt 0.194883 0.816174
vt 0.335876 0.816174
vt 0.365972 0.452054
vt 0.365972 0.567919
vt 0.999997 0.955354
vt 0.927804 0.955354
vt 0.927804 0.814361
vt 0.999997 0.814361
vt 0.513416 0.734039
vt 0.397752 0.734039
vn 0.9833 0.1818 -0.0000
vn -0.0318 -0.2327 -0.9720
vn 0.8025 -0.4325 -0.4109
vn -0.2528 0.9313 -0.2622
vn 0.1764 -0.9540 0.2423
vn -0.0441 0.2382 0.9702
vn 0.1055 0.8993 -0.4243
vn 0.9859 0.1672 -0.0004
vn 0.9961 0.0853 -0.0222
vn -0.2916 0.1150 0.9496
vn 0.0441 -0.2382 -0.9702
vn -0.1764 0.9540 -0.2423
vn -0.8925 -0.4425 0.0874
vn 0.0549 0.9100 -0.4110
vn -0.1807 0.9790 0.0948
vn 0.2997 -0.5619 -0.7710
vn -0.9729 0.2209 -0.0685
vn -0.2148 -0.9702 0.1125
vn 0.0120 0.8335 -0.5524
vn -0.1632 -0.7519 0.6388
vn 0.2888 -0.9458 0.1484
vn -0.0658 0.4532 0.8890
vn 0.8403 -0.5289 0.1189
vn -0.2586 0.9601 -0.1069
vn 0.3854 0.8085 0.4448
vn -0.0319 -0.9969 0.0726
vn 0.0000 0.0000 1.0000
vn -0.3008 -0.9519 -0.0586
vn 0.9881 0.0724 -0.1355
vn -0.0900 0.9819 0.1669
vn -0.4569 0.5107 -0.7283
vn 0.9273 -0.3685 0.0653
vn -0.0889 0.9698 0.2271
vn -0.9690 0.2462 -0.0179
vn -0.1832 0.3827 -0.9055
vn 0.2586 -0.9601 0.1069
vn 0.1060 -0.9892 -0.1015
vn -0.7495 0.6342 -0.1898
vn -0.7004 0.7065 -0.1011
vn 0.2647 0.8019 -0.5356
vn 0.9256 0.3768 -0.0365
vn -0.0024 -0.1502 0.9887
vn -0.1687 -0.9002 0.4014
vn -0.0866 -0.6340 -0.7684
vn -0.9001 -0.4337 0.0420
vn 0.7125 0.6945 -0.1004
vn -0.2565 0.9449 -0.2032
vn 0.0827 -0.2309 -0.9695
vn 0.9825 0.1855 0.0149
vn -0.3222 -0.9467 0.0000
vn -0.3106 -0.9503 0.0219
vn -0.9421 0.3350 -0.0123
vn -0.9416 0.3360 -0.0200
vn -0.9417 0.3359 -0.0191
vn 0.3076 0.9493 -0.0650
vn -0.3812 0.9101 -0.1626
vn -0.0000 -0.0000 -1.0000
vn -0.7788 -0.1947 -0.5963
vn -0.9422 0.3347 -0.0122
vn -0.9907 0.1363 -0.0000
vn -0.9467 0.3222 -0.0000
vn 0.1161 -0.9899 0.0815
vn -0.5789 0.8154 -0.0000
vn 0.9467 -0.3222 0.0000
vn 0.4822 0.8681 0.1177
vn -0.4913 0.8710 -0.0000
vn -0.6386 -0.7695 0.0000
vn 0.6386 0.7695 -0.0000
vn -0.7059 -0.7019 -0.0952
vn -0.8722 0.4883 0.0278
vn -0.2594 0.9600 -0.1054
vn 0.3222 0.9467 -0.0000
vn -0.8722 0.4883 -0.0278
vn 0.2262 -0.9741 0.0000
vn 0.1064 0.9597 0.2602
usemtl Material.002
s 1
f 1/1/1 2/2/1 3/3/1 4/4/1
f 1/5/2 5/6/2 6/7/2 7/8/2
f 8/9/3 9/10/3 10/11/3 4/4/3
f 11/12/4 5/13/4 10/14/4 9/15/4
f 2/16/5 12/17/5 13/18/5 3/19/5
f 14/20/6 15/21/6 16/22/6 17/23/6
f 18/24/5 19/25/5 12/17/5 2/16/5
f 18/26/6 14/20/6 17/23/6 19/27/6
f 13/28/7 8/9/7 4/4/7 3/3/7
f 14/20/6 18/26/6 20/29/6 21/30/6
f 5/31/8 1/1/8 4/4/8 10/11/8
f 7/32/9 6/33/9 22/34/9 21/35/9
f 23/36/1 7/32/1 21/35/1 20/37/1
f 15/21/10 14/20/10 21/30/10 22/38/10
f 2/39/11 1/5/11 7/8/11 23/40/11
f 23/41/12 20/42/12 24/43/12 25/44/12
f 26/45/13 27/46/13 28/47/13 29/48/13
f 29/49/12 28/50/12 30/51/12 31/52/12
f 31/52/14 30/51/14 32/53/14 33/54/14
f 27/46/15 15/55/15 34/56/15 35/57/15
f 36/58/11 26/45/11 29/48/11 31/59/11
f 37/60/5 38/61/5 39/62/5 40/63/5
f 41/64/16 42/65/16 39/66/16 38/67/16
f 43/68/17 20/69/17 44/70/17 45/71/17
f 46/72/18 41/64/18 38/67/18 37/73/18
f 47/74/19 48/75/19 33/54/19 32/53/19
f 36/58/20 31/59/20 33/76/20 48/77/20
f 22/78/21 6/79/21 49/80/21 50/81/21
f 51/82/22 22/83/22 50/84/22 47/85/22
f 52/86/23 53/87/23 54/88/23 55/89/23
f 42/65/24 23/40/24 25/90/24 52/91/24
f 43/92/25 40/93/25 54/94/25 53/95/25
f 40/63/26 39/62/26 55/89/26 54/88/26
f 35/96/27 56/97/27 57/98/27 58/99/27
f 15/100/28 22/101/28 59/102/28 34/103/28
f 51/104/29 30/105/29 57/106/29 56/107/29
f 30/51/30 28/50/30 58/108/30 57/109/30
f 45/110/31 60/111/31 61/112/31 62/113/31
f 46/72/32 37/73/32 61/114/32 60/115/32
f 20/116/33 18/117/33 63/118/33 44/119/33
f 37/60/5 40/63/5 62/120/5 61/121/5
f 18/122/34 46/72/34 60/115/34 63/123/34
f 44/124/35 63/125/35 60/111/35 45/110/35
f 20/126/36 43/92/36 53/95/36 24/127/36
f 39/66/37 42/65/37 52/91/37 55/128/37
f 25/44/38 24/43/38 53/129/38 52/130/38
f 18/122/39 2/39/39 41/64/39 46/72/39
f 40/131/1 43/68/1 45/71/1 62/132/1
f 2/39/40 23/40/40 42/65/40 41/64/40
f 22/133/41 51/104/41 56/107/41 59/134/41
f 34/135/27 59/136/27 56/97/27 35/96/27
f 30/137/6 51/82/6 47/85/6 32/138/6
f 6/7/42 36/58/42 48/77/42 49/139/42
f 50/81/43 49/80/43 48/140/43 47/141/43
f 6/7/44 5/6/44 26/45/44 36/58/44
f 28/47/45 27/46/45 35/57/45 58/142/45
f 5/6/46 15/55/46 27/46/46 26/45/46
f 64/143/47 65/144/47 66/145/47 67/146/47
f 5/147/48 11/148/48 67/149/48 66/150/48
f 15/151/49 5/152/49 66/153/49 65/154/49
f 16/22/6 15/21/6 65/155/6 64/156/6
f 68/157/27 69/158/27 70/159/27 71/160/27
f 72/161/50 73/162/50 74/163/50 75/164/50
f 76/165/27 68/157/27 77/166/27 78/167/27
f 79/168/27 69/158/27 68/157/27 76/165/27
f 75/164/51 74/163/51 80/169/51 81/170/51
f 82/171/52 83/172/53 84/173/53 85/174/54
f 83/175/55 86/176/55 87/177/55 84/178/55
f 85/179/56 84/178/56 87/177/56 88/180/56
f 86/181/57 83/182/57 89/183/57 90/184/57
f 80/169/58 85/185/58 88/186/58 81/170/58
f 74/187/59 82/171/52 85/174/54 80/188/59
f 72/189/27 79/168/27 76/165/27 73/190/27
f 83/191/57 82/192/57 91/193/57 92/194/57
f 78/195/60 77/196/60 92/197/60 91/198/60
f 93/199/61 78/195/61 91/198/61 94/200/61
f 82/192/57 74/201/57 94/202/57 91/193/57
f 73/190/27 76/165/27 78/167/27 93/203/27
f 95/204/57 96/205/57 97/206/57 98/207/57
f 77/208/62 68/209/62 99/210/62 100/211/62
f 101/212/63 102/213/63 103/214/63 104/215/63
f 105/216/64 106/217/64 102/218/64 101/219/64
f 107/220/27 92/194/27 108/221/27 109/222/27
f 106/217/57 107/220/57 103/223/57 102/218/57
f 97/224/50 110/225/50 111/226/50 98/227/50
f 96/205/64 112/228/64 110/229/64 97/206/64
f 113/230/61 111/231/61 114/232/61 115/233/61
f 93/234/65 94/235/65 116/236/65 117/237/65
f 109/238/66 118/239/66 119/240/66 120/241/66
f 121/242/27 104/243/27 119/244/27 118/245/27
f 92/246/67 77/247/67 122/248/67 108/249/67
f 104/215/68 103/214/68 120/241/68 119/240/68
f 123/250/69 124/251/69 125/252/69 126/253/69
f 113/254/27 93/255/27 117/256/27 123/257/27
f 95/204/57 98/207/57 125/258/57 124/259/57
f 98/227/50 111/226/50 126/253/50 125/252/50
f 127/260/27 128/261/27 129/262/27 130/263/27
f 121/264/70 77/265/70 100/266/70 127/267/70
f 101/212/71 104/215/71 130/268/71 129/269/71
f 105/216/64 101/219/64 129/270/64 128/271/64
f 131/272/27 115/273/27 114/274/27 132/275/27
f 73/276/72 93/277/72 133/278/72 134/279/72
f 111/226/50 110/225/50 132/280/50 114/281/50
f 112/228/64 73/282/64 134/283/64 131/284/64
f 68/285/64 105/216/64 128/271/64 99/286/64
f 104/287/73 121/264/73 127/267/73 130/288/73
f 100/289/27 99/290/27 128/261/27 127/260/27
f 77/291/57 121/242/57 118/245/57 122/292/57
f 108/249/74 122/248/74 118/293/74 109/294/74
f 83/191/57 92/194/57 107/220/57 106/217/57
f 103/223/57 107/220/57 109/222/57 120/295/57
f 68/285/64 83/191/64 106/217/64 105/216/64
f 110/229/64 112/228/64 131/284/64 132/296/64
f 134/297/27 133/298/27 115/273/27 131/272/27
f 94/202/57 95/204/57 124/259/57 116/299/57
f 111/300/27 113/254/27 123/257/27 126/301/27
f 117/237/75 116/236/75 124/302/75 123/303/75
f 93/304/61 113/230/61 115/233/61 133/305/61
f 74/201/64 73/282/64 112/228/64 96/205/64
f 94/202/57 74/201/57 96/205/57 95/204/57
f 71/306/72 70/307/72 90/308/72 89/309/72
f 83/182/61 68/310/61 71/311/61 89/183/61
