# Blender v3.1.2 OBJ File: 'enemy2.blend'
# www.blender.org
mtllib enemy2.mtl
o Cube.001
v -3.000000 3.000000 3.000000
v 0.072288 3.000000 3.000000
v 0.072288 7.922140 2.999999
v -3.000000 7.922140 2.999999
v 3.000000 -0.037494 -3.000000
v 3.000000 -3.000000 -3.000000
v 3.000000 -3.000002 -13.866149
v 3.000000 -0.037496 -13.866150
v 3.000000 3.000000 -3.000000
v 3.787878 3.000000 -3.000000
v 3.787878 -0.037494 -3.000000
v 0.072288 -3.000000 3.000000
v -3.000000 -3.000000 3.000000
v -3.000000 -3.000000 -3.000000
v 0.072288 -3.000000 -3.000000
v -3.000000 -0.037494 3.000000
v -3.782976 3.000000 3.000000
v -3.782976 -0.037494 3.000000
v 0.072288 -0.037494 3.000000
v 0.072288 -0.037498 -21.612307
v 0.072288 2.999998 -13.866151
v 3.000000 2.999998 -13.866151
v -3.000000 -3.000002 -13.866149
v 0.072288 -3.000002 -13.866149
v 0.072288 3.000000 -3.000000
v -3.000000 -0.037494 -3.000000
v -3.000000 3.000000 -3.000000
v -3.000000 2.999998 -13.866151
v -3.000000 -0.037496 -13.866150
v 3.000000 -0.037494 3.000000
v 3.000000 3.000000 3.000000
v 3.000000 -3.000000 3.000000
v -3.000000 7.922139 -3.000001
v 0.072288 7.922139 -3.000001
v -3.782976 -0.037494 -3.000000
v -3.782976 3.000000 -3.000000
v 3.787878 -3.000000 3.000000
v 3.787878 -0.037494 3.000000
v 3.787878 3.000000 3.000000
v 3.787878 -3.000000 -3.000000
v 8.462643 -3.000000 3.000000
v 8.462643 -3.000000 -3.000000
v 3.000000 3.391443 -3.000000
v 3.000000 3.391443 3.000000
v 3.000000 3.782889 2.999999
v 3.000000 3.782888 -3.000001
v -3.782976 -3.000000 3.000000
v -3.782976 -3.000000 -3.000000
v -3.782976 -3.515233 -3.000000
v -3.000000 -3.515233 -3.000000
v -3.000000 -4.030465 -2.999999
v -3.782976 -4.030465 -2.999999
v -3.000000 3.000001 7.120245
v -3.782976 3.000001 7.120245
v -3.000000 4.262841 2.999999
v -3.000000 4.262840 -3.000001
v -3.782976 4.262840 -3.000001
v -3.782976 4.262841 2.999999
v -3.000000 3.631423 3.000000
v -3.000000 3.631422 -3.000000
v -3.782976 3.631422 -3.000000
v -8.436972 3.000000 -3.000000
v -10.985790 3.631422 -3.000000
v 3.787878 3.782889 2.999999
v 3.787878 3.782888 -3.000001
v 8.830126 3.782889 2.999999
v 8.830126 3.782888 -3.000001
v 3.000000 3.000001 7.043114
v 3.000000 3.391444 7.043114
v 3.787878 3.391443 -3.000000
v -3.000000 -4.030464 3.000001
v -3.782976 -4.030464 3.000001
v -3.000000 -3.515232 3.000000
v -3.782976 -3.515232 3.000000
v -3.782976 -4.030463 7.930705
v -3.782976 -3.515231 7.930705
v -7.775064 -3.000000 -3.000000
v -7.775064 -3.000000 3.000000
v 3.000000 -3.754472 3.000001
v 3.000000 -3.754473 -2.999999
v 3.787878 -3.754473 -2.999999
v 3.787878 -3.754472 3.000001
v 3.000000 -3.377239 -3.000000
v 3.787878 -3.377239 -3.000000
v 3.787878 -3.377238 3.000000
v 3.787878 -2.999999 8.185840
v 3.787878 -3.377237 8.185840
v 3.000000 -3.377238 3.000000
v 11.051457 3.391443 3.000000
v 11.051457 3.391443 -3.000000
v 8.830126 3.000000 -3.000000
v 8.830126 3.000000 3.000000
v 3.787878 3.391443 3.000000
v 10.600887 -3.377239 -3.000000
v 10.600887 -3.377238 3.000000
v 8.462643 -3.754472 3.000001
v 8.462643 -3.754473 -2.999999
v -10.985790 3.631423 3.000000
v -8.436972 4.262841 2.999999
v -8.436972 4.262840 -3.000001
v -3.782976 3.631423 3.000000
v -8.436972 3.000000 3.000000
v -10.105287 -3.515232 3.000000
v -10.105287 -3.515233 -3.000000
v -7.775064 -4.030465 -2.999999
v -7.775064 -4.030464 3.000001
v -3.782976 3.631423 7.120245
v -3.000000 3.631423 7.120245
v -3.000000 4.262842 7.120245
v -3.782976 4.262842 7.120245
v 3.787878 3.391444 7.043114
v 3.787878 3.782890 7.043114
v 3.000000 3.782890 7.043114
v 3.787878 3.000001 7.043114
v -3.000000 -3.515231 7.930705
v -3.000000 -4.030463 7.930705
v -3.782976 -2.999999 7.930705
v -3.000000 -2.999999 7.930705
v 3.000000 -3.377237 8.185840
v 3.000000 -3.754471 8.185840
v 3.787878 -3.754471 8.185840
v 3.000000 -2.999999 8.185840
v 3.000000 7.922140 2.999999
v 3.000000 7.922139 -3.000001
vt 0.018399 0.585508
vt 0.090594 0.585508
vt 0.090594 0.701172
vt 0.018399 0.701172
vt 0.724456 0.437367
vt 0.654841 0.437367
vt 0.654841 0.182025
vt 0.724456 0.182025
vt 0.423642 0.262854
vt 0.495019 0.262854
vt 0.495019 0.281368
vt 0.423642 0.281368
vt 0.267500 0.578360
vt 0.195307 0.578360
vt 0.195307 0.437367
vt 0.267500 0.437367
vt 0.018399 0.514130
vt 0.000000 0.585508
vt 0.000000 0.514130
vt 0.090594 0.514130
vt 0.724456 0.000000
vt 0.795834 0.182025
vt 0.795834 0.182025
vt 0.195307 0.182025
vt 0.267500 0.182025
vt 0.582213 0.437367
vt 0.513416 0.437367
vt 0.513416 0.182025
vt 0.582213 0.182025
vt 0.867211 0.255342
vt 0.795834 0.255342
vt 0.795834 0.000000
vt 0.867211 0.000000
vt 0.654406 0.437367
vt 0.654406 0.182025
vt 0.336297 0.437367
vt 0.336297 0.182025
vt 0.654841 0.182025
vt 0.582647 0.000000
vt 0.159392 0.514130
vt 0.159392 0.585508
vt 0.336297 0.578360
vt 0.513416 0.520851
vt 0.513416 0.593047
vt 0.397752 0.593047
vt 0.397752 0.520851
vt 0.159392 0.444515
vt 0.090594 0.444515
vt 0.194883 0.182025
vt 0.267077 0.000000
vt 0.936827 0.255342
vt 0.936827 0.000000
vt 0.654841 0.182025
vt 0.018399 0.444515
vt 0.165208 0.187657
vt 0.093830 0.187657
vt 0.093830 0.169258
vt 0.165208 0.169258
vt 0.177906 0.444515
vt 0.177906 0.514130
vt 0.795834 0.437367
vt 0.476869 0.885789
vt 0.476869 0.957167
vt 0.335876 0.957167
vt 0.335876 0.885789
vt 0.476869 0.816174
vt 0.335876 0.816174
vt 0.177906 0.585508
vt 0.354026 0.262854
vt 0.354026 0.281368
vt 0.795834 0.255342
vt 0.936827 0.255342
vt 0.936827 0.365191
vt 0.795834 0.365191
vt 0.504218 0.262854
vt 0.504218 0.121861
vt 0.513416 0.121861
vt 0.513416 0.262854
vt 1.000000 0.742984
vt 1.000000 0.814361
vt 0.859007 0.814361
vt 0.859007 0.742984
vt 1.000000 0.673369
vt 0.859007 0.673369
vt 0.024215 0.187657
vt 0.024215 0.169258
vt 0.000000 0.444515
vt 0.012107 0.169258
vt 0.012107 0.187657
vt 0.000000 0.187657
vt 0.000000 0.169258
vt 0.140993 0.849739
vt 0.159392 0.849739
vt 0.159392 0.946560
vt 0.140993 0.946560
vt 0.194883 0.719353
vt 0.194883 0.578360
vt 0.213282 0.578360
vt 0.213282 0.719353
vt 0.180045 0.328650
vt 0.180045 0.187657
vt 0.194883 0.187657
vt 0.194883 0.328650
vt 0.180045 0.169258
vt 0.165208 0.059894
vt 0.180045 0.000000
vt 0.194883 0.169258
vt 0.691971 0.673368
vt 0.691971 0.532376
vt 0.710484 0.532376
vt 0.710484 0.673368
vt 0.828969 0.532376
vt 0.828969 0.673368
vt 0.495019 0.121861
vt 0.495019 0.026853
vt 0.504218 0.026853
vt 0.504218 0.281368
vt 0.513416 0.281368
vt 0.691971 0.930227
vt 0.691971 0.789234
vt 0.710369 0.789234
vt 0.710369 0.930227
vt 0.012107 0.328650
vt 0.000000 0.328650
vt 0.378080 0.452054
vt 0.390187 0.452054
vt 0.390187 0.567919
vt 0.378080 0.567919
vt 0.335876 0.964812
vt 0.194883 0.964812
vt 0.194883 0.871004
vt 0.335876 0.871004
vt 0.513416 0.578360
vt 0.513416 0.437367
vt 0.531930 0.437367
vt 0.531930 0.578360
vt 0.345162 0.262854
vt 0.345162 0.281368
vt 0.336297 0.281368
vt 0.336297 0.262854
vt 0.945691 0.121861
vt 0.936827 0.121861
vt 0.936827 0.000000
vt 0.945691 0.000000
vt 0.345162 0.121861
vt 0.336297 0.121861
vt 0.881111 0.532376
vt 0.881111 0.673368
vt 0.513416 0.399855
vt 0.504218 0.452054
vt 0.654409 0.870847
vt 0.513416 0.870847
vt 0.513416 0.752362
vt 0.654409 0.752362
vt 0.174406 0.871858
vt 0.165208 0.871858
vt 0.165208 0.753371
vt 0.174406 0.701173
vt 0.691971 0.437367
vt 0.691971 0.578360
vt 0.641779 0.578360
vt 0.641779 0.437367
vt 0.354026 0.391220
vt 0.345162 0.441466
vt 0.504552 0.894137
vt 0.495687 0.894137
vt 0.495687 0.784286
vt 0.504552 0.734039
vt 0.382626 0.578360
vt 0.382626 0.719353
vt 0.322643 0.719353
vt 0.322643 0.578360
vt 0.669247 0.700221
vt 0.684084 0.700221
vt 0.684084 0.809584
vt 0.669247 0.869479
vt 0.000000 0.701173
vt 0.140993 0.701173
vt 0.140993 0.810534
vt 0.000000 0.810534
vt 0.859007 0.789234
vt 0.859007 0.930227
vt 0.804177 0.930227
vt 0.804177 0.789234
vt 0.153100 0.849739
vt 0.140993 0.849739
vt 0.140993 0.755930
vt 0.153100 0.701172
vt 0.000000 0.075448
vt 0.012107 0.020691
vt 0.397752 0.748877
vt 0.416151 0.748877
vt 0.416151 0.763715
vt 0.397752 0.763715
vt 0.351135 0.452054
vt 0.365972 0.452054
vt 0.365972 0.548874
vt 0.351135 0.548874
vt 0.213282 0.816174
vt 0.194883 0.816174
vt 0.194883 0.425470
vt 0.180045 0.425470
vt 0.425349 0.734039
vt 0.425349 0.752554
vt 0.416151 0.752554
vt 0.416151 0.734039
vt 0.881111 0.578360
vt 0.899625 0.578360
vt 0.899625 0.673369
vt 0.881111 0.673369
vt 0.908823 0.673368
vt 0.899625 0.673368
vt 0.899625 0.578360
vt 0.908823 0.578360
vt 0.691971 0.437367
vt 0.710484 0.437367
vt 0.354696 0.560982
vt 0.336297 0.560982
vt 0.336297 0.548874
vt 0.354696 0.548874
vt 0.936827 0.121861
vt 0.955225 0.121861
vt 0.955225 0.237727
vt 0.936827 0.237727
vt 0.691971 0.673368
vt 0.710369 0.673368
vt 0.024215 0.328650
vt 0.024215 0.444515
vt 0.012107 0.444515
vt 0.443412 0.752554
vt 0.443412 0.734039
vt 0.452277 0.734039
vt 0.452277 0.752554
vt 0.336297 0.000000
vt 0.345162 0.000000
vt 0.477173 0.734039
vt 0.495687 0.734039
vt 0.495687 0.855901
vt 0.477173 0.855901
vt 0.531930 0.700221
vt 0.513416 0.700221
vt 0.165208 0.328650
vt 0.165208 0.425470
vt 0.336297 0.452054
vt 0.336297 0.548874
vt 0.397752 0.734039
vt 0.416151 0.734039
vt 0.654409 0.700221
vt 0.654409 0.809584
vt 0.140993 0.870517
vt 0.000000 0.870517
vt 0.194883 0.059894
vt 0.000000 0.444515
vt 0.354696 0.573089
vt 0.336297 0.573089
vt 0.024215 0.075448
vt 0.165208 0.849739
vt 0.165208 0.755930
vt 0.194883 0.816174
vt 0.335876 0.816174
vt 0.365972 0.452054
vt 0.365972 0.567919
vt 0.354026 0.121861
vt 0.354026 0.000000
vt 0.434548 0.752554
vt 0.434548 0.734039
vt 0.513416 0.894137
vt 0.513416 0.784286
vt 0.336297 0.391220
vt 0.936827 0.415382
vt 0.795834 0.415382
vt 0.954556 0.121861
vt 0.954556 0.000000
vt 0.918022 0.673368
vt 0.918022 0.578360
vt 0.434548 0.734039
vt 0.434548 0.752554
vt 0.183605 0.871858
vt 0.183605 0.753371
vt 0.495019 0.399855
vt 0.513416 0.700221
vt 0.654409 0.700221
vt 0.513416 0.026853
vt 0.927804 0.955354
vt 0.859007 0.955354
vt 0.859007 0.814361
vt 0.927804 0.814361
vt 0.999997 0.955354
vt 0.999997 0.814361
vt 0.513416 0.452054
vt 0.397752 0.452054
vt 0.996775 0.437367
vt 0.996775 0.578360
vt 0.881111 0.578360
vt 0.881111 0.437367
vt 0.513416 0.734039
vt 0.397752 0.734039
vt 0.159392 0.701172
vn 0.0000 0.0000 1.0000
vn 1.0000 0.0000 0.0000
vn 0.0000 -0.0000 -1.0000
vn 0.0000 -1.0000 0.0000
vn 0.6324 0.6095 -0.4780
vn 0.0000 1.0000 -0.0000
vn -1.0000 0.0000 0.0000
vn -0.6140 0.6211 -0.4871
vn -0.6080 -0.6306 -0.4823
vn 0.6265 -0.6191 -0.4736
vn 0.1735 0.9848 -0.0000
vn 0.1737 -0.9848 0.0000
vn -0.2405 0.9707 -0.0000
vn -0.2159 -0.9764 0.0000
vn -0.2405 -0.9707 0.0000
vn -0.2159 0.9764 -0.0000
vn 0.1737 0.9848 -0.0000
vn 0.1735 -0.9848 0.0000
usemtl Material.001
s 1
f 1/1/1 2/2/1 3/3/1 4/4/1
f 5/5/2 6/6/2 7/7/2 8/8/2
f 5/9/3 9/10/3 10/11/3 11/12/3
f 12/13/4 13/14/4 14/15/4 15/16/4
f 16/17/1 1/1/1 17/18/1 18/19/1
f 19/20/1 2/2/1 1/1/1 16/17/1
f 20/21/5 21/22/5 22/23/5 8/8/5
f 15/16/4 14/15/4 23/24/4 24/25/4
f 25/26/6 9/27/6 22/28/6 21/29/6
f 26/30/7 27/31/7 28/32/7 29/33/7
f 27/34/6 25/26/6 21/29/6 28/35/6
f 6/36/4 15/16/4 24/25/4 7/37/4
f 29/38/8 28/35/8 21/29/8 20/39/8
f 30/40/1 31/41/1 2/2/1 19/20/1
f 32/42/4 12/13/4 15/16/4 6/36/4
f 25/43/3 27/44/3 33/45/3 34/46/3
f 32/47/1 30/40/1 19/20/1 12/48/1
f 23/24/9 29/49/9 20/50/9 24/25/9
f 14/51/7 26/30/7 29/33/7 23/52/7
f 24/53/10 20/21/10 8/8/10 7/7/10
f 12/48/1 19/20/1 16/17/1 13/54/1
f 27/55/3 26/56/3 35/57/3 36/58/3
f 30/40/1 32/47/1 37/59/1 38/60/1
f 9/61/2 5/5/2 8/8/2 22/23/2
f 11/62/2 10/63/2 39/64/2 38/65/2
f 40/66/2 11/62/2 38/65/2 37/67/2
f 31/41/1 30/40/1 38/60/1 39/68/1
f 6/69/3 5/9/3 11/12/3 40/70/3
f 40/71/6 37/72/6 41/73/6 42/74/6
f 43/75/7 44/76/7 45/77/7 46/78/7
f 18/79/7 17/80/7 36/81/7 35/82/7
f 47/83/7 18/79/7 35/82/7 48/84/7
f 26/56/3 14/85/3 48/86/3 35/57/3
f 13/54/1 16/17/1 18/19/1 47/87/1
f 49/88/3 50/89/3 51/90/3 52/91/3
f 17/92/4 1/93/4 53/94/4 54/95/4
f 55/96/6 56/97/6 57/98/6 58/99/6
f 59/100/2 60/101/2 56/102/2 55/103/2
f 61/104/3 36/58/3 62/105/3 63/106/3
f 60/101/3 61/104/3 57/107/3 56/102/3
f 46/108/6 45/109/6 64/110/6 65/111/6
f 65/111/6 64/110/6 66/112/6 67/113/6
f 44/76/7 31/114/7 68/115/7 69/116/7
f 70/117/3 43/75/3 46/78/3 65/118/3
f 51/119/4 71/120/4 72/121/4 52/122/4
f 50/89/2 73/123/2 71/124/2 51/90/2
f 74/125/7 72/126/7 75/127/7 76/128/7
f 47/129/6 48/130/6 77/131/6 78/132/6
f 79/133/4 80/134/4 81/135/4 82/136/4
f 83/137/3 84/138/3 81/139/3 80/140/3
f 85/141/2 37/142/2 86/143/2 87/144/2
f 88/145/7 83/137/7 80/140/7 79/146/7
f 89/147/11 90/148/11 67/113/11 66/112/11
f 70/117/3 65/118/3 67/149/3 90/150/3
f 39/151/4 10/152/4 91/153/4 92/154/4
f 93/155/1 39/156/1 92/157/1 89/158/1
f 94/159/12 95/160/12 96/161/12 97/162/12
f 84/138/3 40/70/3 42/163/3 94/164/3
f 85/165/1 82/166/1 96/167/1 95/168/1
f 82/136/4 81/135/4 97/162/4 96/161/4
f 63/169/13 98/170/13 99/171/13 100/172/13
f 101/173/1 58/174/1 99/175/1 98/176/1
f 36/177/4 17/178/4 102/179/4 62/180/4
f 58/99/6 57/98/6 100/172/6 99/171/6
f 103/181/14 104/182/14 105/183/14 106/184/14
f 74/185/1 47/186/1 78/187/1 103/188/1
f 49/88/3 52/91/3 105/189/3 104/190/3
f 52/122/4 72/121/4 106/184/4 105/183/4
f 107/191/1 108/192/1 109/193/1 110/194/1
f 101/195/7 17/196/7 54/197/7 107/198/7
f 55/96/6 58/99/6 110/199/6 109/200/6
f 59/100/2 55/103/2 109/201/2 108/202/2
f 69/203/1 111/204/1 112/205/1 113/206/1
f 31/207/4 39/208/4 114/209/4 68/210/4
f 93/211/2 64/212/2 112/213/2 111/214/2
f 64/110/6 45/109/6 113/215/6 112/216/6
f 115/217/1 76/218/1 75/219/1 116/220/1
f 13/221/6 47/222/6 117/223/6 118/224/6
f 72/121/4 71/120/4 116/225/4 75/226/4
f 73/123/2 13/227/2 118/228/2 115/229/2
f 87/230/1 119/231/1 120/232/1 121/233/1
f 88/145/7 79/146/7 120/234/7 119/235/7
f 37/236/6 32/237/6 122/238/6 86/239/6
f 79/133/4 82/136/4 121/240/4 120/241/4
f 1/242/2 59/100/2 108/202/2 53/243/2
f 58/244/7 101/195/7 107/198/7 110/245/7
f 54/246/1 53/247/1 108/192/1 107/191/1
f 17/248/1 101/173/1 98/176/1 102/249/1
f 62/180/15 102/179/15 98/250/15 63/251/15
f 27/55/3 36/58/3 61/104/3 60/101/3
f 57/107/3 61/104/3 63/106/3 100/252/3
f 1/242/2 27/55/2 60/101/2 59/100/2
f 71/124/2 73/123/2 115/229/2 116/253/2
f 118/254/1 117/255/1 76/218/1 115/217/1
f 48/86/3 49/88/3 104/190/3 77/256/3
f 72/257/1 74/185/1 103/188/1 106/258/1
f 78/132/16 77/131/16 104/259/16 103/260/16
f 47/261/7 74/125/7 76/128/7 117/262/7
f 14/85/2 13/227/2 73/123/2 50/89/2
f 48/86/3 14/85/3 50/89/3 49/88/3
f 32/263/7 88/145/7 119/235/7 122/264/7
f 86/265/1 122/266/1 119/231/1 87/230/1
f 37/267/1 85/165/1 95/168/1 41/268/1
f 81/139/3 84/138/3 94/164/3 97/269/3
f 42/74/17 41/73/17 95/270/17 94/271/17
f 32/263/7 6/69/7 83/137/7 88/145/7
f 82/272/2 85/141/2 87/144/2 121/273/2
f 6/69/3 40/70/3 84/138/3 83/137/3
f 39/274/2 93/211/2 111/214/2 114/275/2
f 68/276/1 114/277/1 111/204/1 69/203/1
f 64/278/1 93/155/1 89/158/1 66/279/1
f 10/11/3 70/117/3 90/150/3 91/280/3
f 92/154/18 91/153/18 90/281/18 89/282/18
f 10/11/3 9/10/3 43/75/3 70/117/3
f 45/77/7 44/76/7 69/116/7 113/283/7
f 9/10/7 31/114/7 44/76/7 43/75/7
f 3/284/6 123/285/6 124/286/6 34/287/6
f 4/288/6 3/284/6 34/287/6 33/289/6
f 9/290/3 25/43/3 34/46/3 124/291/3
f 31/292/2 9/293/2 124/294/2 123/295/2
f 27/44/7 1/296/7 4/297/7 33/45/7
f 2/2/1 31/41/1 123/298/1 3/3/1
