# Blender v3.1.2 OBJ File: 'enemy1.blend'
# www.blender.org
mtllib enemy1dead.mtl
o Cube
v -1.080347 1.289106 2.500000
v -1.293429 -1.033360 2.500000
v -1.255138 1.676245 -2.500000
v -1.518829 -1.210888 -2.500000
v 1.427264 1.400719 2.500000
v 1.518036 -0.912717 2.500000
v 1.144383 1.721056 -2.500000
v 1.092411 -1.272459 -2.500000
v 3.047839 -3.047840 0.000000
v -0.000000 -3.047839 3.047839
v -1.166848 0.000000 3.047840
v 1.210630 -0.000000 -3.047840
v -1.925991 0.000000 -3.047839
v 1.708237 -0.000000 3.047839
v -3.047839 3.047839 -0.000000
v 3.047839 3.047839 0.000000
v -0.000000 1.406853 3.047839
v -3.047839 -3.047839 -0.000000
v 0.000000 2.396521 -1.800645
v 5.423575 -0.799643 -4.285419
v 0.000000 -1.690389 -0.000000
v -4.575335 0.000000 -5.126227
v 2.500000 -5.734653 0.700044
v 3.047839 -6.282493 -1.362722
v -2.500000 -5.734653 0.377282
v -0.000000 -1.601388 4.146024
v -3.047839 -6.282492 -1.880979
v -0.000000 -4.442335 1.098185
vt 0.464222 0.432001
vt 0.371946 0.305697
vt 0.510187 0.340226
vt 0.260255 0.438053
vt 0.348983 0.432791
vt 0.399700 0.000000
vt 0.297463 0.107930
vt 0.260255 0.035636
vt 0.997578 0.305697
vt 0.997578 0.496223
vt 0.941026 0.402256
vt 0.880961 0.492096
vt 0.700845 0.492096
vt 0.836936 0.305697
vt 0.159496 0.696257
vt 0.159496 0.886449
vt 0.000000 0.803399
vt 0.694498 0.117535
vt 0.841681 0.000000
vt 0.809406 0.105074
vt 0.252040 0.192198
vt 0.120852 0.128445
vt 0.260255 0.055705
vt 0.000000 0.220217
vt 0.134381 0.169514
vt 0.053518 0.310891
vt 0.407594 0.835724
vt 0.260255 0.714704
vt 0.373286 0.727355
vt 0.700379 0.748286
vt 0.510187 0.748286
vt 0.606368 0.538362
vt 0.859957 0.768796
vt 0.700379 0.685272
vt 0.859957 0.538361
vt 0.468611 0.717192
vt 0.468611 0.907715
vt 0.407594 0.811498
vt 0.963474 0.650998
vt 0.879782 0.553354
vt 0.963474 0.538361
vt 0.945131 0.768796
vt 0.966035 0.900222
vt 0.860227 0.900222
vt 0.841681 0.080840
vt 0.958329 0.151500
vt 0.917470 0.158568
vt 0.726773 0.265069
vt 0.407594 0.653525
vt 0.497569 0.567632
vt 0.497569 0.717192
vt 0.294562 0.567632
vt 0.407594 0.580284
vt 0.261522 0.347604
vt 0.523148 0.055313
vt 0.513102 0.124070
vt 0.510187 0.538361
vt 0.605703 0.305697
vt 0.700845 0.538361
vt 0.253750 1.000000
vt 0.193685 0.901688
vt 0.253750 0.811645
vt 0.257773 0.621122
vt 0.193685 0.525299
vt 0.257773 0.430596
vt 0.523148 0.184230
vt 0.694498 0.000000
vt 0.694498 0.239930
vt 0.008214 0.083724
vt 0.260255 0.287909
vt 0.673728 0.928462
vt 0.510187 0.881727
vt 0.673728 0.748286
vt 0.254793 0.811645
vt 0.193685 0.717330
vt 0.254793 0.621123
vt 0.941026 0.496366
vt 0.880961 0.401081
vt 0.941026 0.305697
vt 0.860227 0.768796
vt 0.860227 0.940642
vt 0.700379 0.872716
vt 0.859958 0.696058
vt 0.198769 0.000000
vt 0.958329 0.000000
vt 0.841681 0.252607
vt 0.930909 0.264356
vn 0.3742 0.8710 0.3183
vn 0.0807 0.9766 0.1993
vn -0.1561 0.8145 -0.5588
vn 0.5897 -0.3650 -0.7204
vn -0.0640 0.7247 -0.6861
vn 0.8931 0.0540 0.4466
vn 0.4462 -0.5271 0.7232
vn 0.4762 0.4420 -0.7602
vn -0.1629 -0.3657 -0.9164
vn -0.3863 -0.8674 -0.3138
vn -0.6596 -0.2874 0.6945
vn -0.9076 -0.1817 0.3785
vn 0.4334 0.7120 -0.5525
vn -0.5347 -0.4910 -0.6878
vn -0.4409 -0.8896 0.1192
vn 0.1786 -0.7197 0.6709
vn 0.7878 0.3724 -0.4905
vn 0.6941 -0.2795 0.6634
vn 0.7508 -0.0913 0.6542
vn -0.9675 0.1598 0.1959
vn -0.2038 0.9592 0.1958
vn -0.3778 0.8666 0.3260
vn 0.1492 0.8219 -0.5498
vn -0.3119 -0.7592 -0.5712
vn 0.7073 0.2390 -0.6653
vn 0.6351 0.3885 0.6676
vn 0.8871 -0.0668 0.4567
vn 0.1629 -0.3657 -0.9164
vn -0.4541 0.3459 -0.8211
vn 0.3748 -0.8415 -0.3891
vn -0.9076 0.1817 0.3785
vn -0.6037 0.3458 0.7183
vn -0.5872 0.4540 -0.6701
vn 0.4334 -0.7120 -0.5525
vn -0.2603 -0.7063 0.6583
vn 0.4304 -0.8956 0.1128
vn -0.7957 -0.0676 0.6019
vn 0.9674 0.1122 0.2271
vn -0.7512 0.3992 -0.5258
vn -0.5477 -0.4206 0.7233
usemtl Material
s off
f 1/1/1 19/2/1 15/3/1
f 5/4/2 19/2/2 17/5/2
f 19/6/3 3/7/3 15/8/3
f 12/9/4 9/10/4 8/11/4
f 12/12/5 16/13/5 20/14/5
f 16/15/6 14/16/6 20/17/6
f 9/18/7 14/19/7 6/20/7
f 18/21/8 28/22/8 27/23/8
f 9/24/9 28/22/9 21/25/9
f 21/25/10 8/26/10 9/24/10
f 11/27/11 18/28/11 2/29/11
f 11/30/12 15/31/12 22/32/12
f 15/33/13 13/34/13 22/35/13
f 18/36/14 13/37/14 4/38/14
f 23/39/15 28/40/15 24/41/15
f 25/42/16 28/43/16 26/44/16
f 2/45/17 26/46/17 10/47/17
f 6/20/18 24/48/18 9/18/18
f 6/49/19 26/50/19 23/51/19
f 2/29/20 27/52/20 25/53/20
f 1/1/21 17/5/21 19/2/21
f 5/4/22 16/54/22 19/2/22
f 19/6/23 16/55/23 7/56/23
f 12/57/24 20/58/24 9/59/24
f 12/60/25 7/61/25 16/62/25
f 16/63/26 5/64/26 14/65/26
f 9/66/27 20/67/27 14/68/27
f 18/21/28 21/25/28 28/22/28
f 9/24/29 24/69/29 28/22/29
f 21/25/30 18/21/30 4/70/30
f 11/71/31 22/72/31 18/73/31
f 11/74/32 1/75/32 15/76/32
f 15/77/33 3/78/33 13/79/33
f 18/80/34 22/81/34 13/82/34
f 23/39/35 26/83/35 28/40/35
f 25/84/36 27/23/36 28/22/36
f 2/45/37 25/85/37 26/46/37
f 6/20/38 23/86/38 24/48/38
f 6/87/39 10/47/39 26/46/39
f 2/29/40 18/28/40 27/52/40
